<?xml version="1.0" standalone="no"?>
<!DOCTYPE svg PUBLIC "-//W3C//DTD SVG 20010904//EN"
 "http://www.w3.org/TR/2001/REC-SVG-20010904/DTD/svg10.dtd">
<svg version="1.0" xmlns="http://www.w3.org/2000/svg"
 width="269.000000pt" height="269.000000pt" viewBox="0 0 269.000000 269.000000"
 preserveAspectRatio="xMidYMid meet">
<metadata>
Created by potrace 1.14, written by Peter Selinger 2001-2017
</metadata>
<g transform="translate(0.000000,269.000000) scale(0.100000,-0.100000)"
fill="#000000" stroke="none">
<path d="M1165 2675 c-606 -75 -1088 -572 -1156 -1190 -68 -627 315 -1216 918
-1414 288 -95 548 -95 836 0 233 76 425 203 594 392 361 405 434 1023 178
1506 -212 397 -603 664 -1043 710 -125 13 -197 13 -327 -4z m145 -880 l0 -35
-425 0 -425 0 0 28 c0 16 3 32 7 35 3 4 195 7 425 7 l418 0 0 -35z m890 0 l0
-35 -335 0 -335 0 0 -520 0 -520 -30 0 -30 0 0 555 0 555 365 0 365 0 0 -35z
m-1380 -595 l0 -480 -30 0 -30 0 0 445 0 444 -147 3 -148 3 -3 33 -3 32 180 0
181 0 0 -480z m490 445 l0 -35 -145 0 -145 0 0 -445 0 -445 -35 0 -35 0 0 480
0 480 180 0 180 0 0 -35z m890 0 l0 -35 -240 0 -241 0 3 -127 3 -128 208 -3
207 -2 0 -30 0 -30 -240 0 -240 0 0 195 0 195 270 0 270 0 0 -35z m-60 -465
l0 -30 -207 -2 -208 -3 -3 -212 -2 -213 -30 0 -30 0 0 245 0 245 240 0 240 0
0 -30z"/>
</g>
</svg>
